<svg xmlns="http://www.w3.org/2000/svg" width="96px" height="96px" viewBox="0 0 96 96">
<path fill="#009CF2" d="M73.4,10.5c-0.5-0.3-1.1-0.1-1.4,0.4c-0.3,0.5-0.1,1.1,0.4,1.4C85.8,19.3,94,33,94,48s-8.3,28.7-21.5,35.8
c-0.5,0.3-0.7,0.9-0.4,1.4c0.2,0.3,0.5,0.5,0.9,0.5c0.2,0,0.3,0,0.5-0.1C87.3,78.1,96,63.7,96,48C96,32.3,87.3,17.9,73.4,10.5z"/>
<path fill="#009CF2" d="M89.5,48c0-19-12.8-35.9-31.1-41c-0.5-0.1-1.1,0.2-1.2,0.7C57,8.3,57.3,8.8,57.9,9
c17.5,4.9,29.7,20.9,29.7,39c0,18.1-12.2,34.2-29.7,39c-0.5,0.1-0.8,0.7-0.7,1.2c0.1,0.4,0.5,0.7,1,0.7c0.1,0,0.2,0,0.3,0
C76.7,83.8,89.5,67,89.5,48z"/>
<path fill="#009CF2" d="M83,48C83,25.1,64.4,6.5,41.5,6.5C18.6,6.5,0,25.1,0,48c0,22.9,18.6,41.5,41.5,41.5C64.4,89.5,83,70.9,83,48
z M41.5,87.5C19.7,87.5,2,69.8,2,48S19.7,8.5,41.5,8.5S81,26.2,81,48S63.3,87.5,41.5,87.5z"/>
<path fill="#009CF2" d="M42.5,20.9H31.3c-2.1,0-3.8,1.7-3.8,3.8v19.6h-2.3c-2.1,0-3.8,1.7-3.8,3.8s1.7,3.8,3.8,3.8h2.3v3.3h-2.3
c-2.1,0-3.8,1.7-3.8,3.8c0,2,1.7,3.8,3.8,3.8h2.3v8.8c0,2,1.7,3.8,3.8,3.8c2.1,0,3.8-1.7,3.8-3.8v-8.8h9.5c2,0,3.8-1.7,3.8-3.8
c0-2.1-1.7-3.8-3.8-3.8h-9.5v-3.3h7.5c10.5,0,19-6.9,19-15.5C61.6,27.8,53,20.9,42.5,20.9z M42.5,49.8h-8.5c-0.6,0-1,0.4-1,1v5.3
c0,0.6,0.4,1,1,1h10.5c1,0,1.8,0.8,1.8,1.8c0,0.9-0.8,1.8-1.8,1.8H34.1c-0.6,0-1,0.4-1,1v9.8c0,1-0.8,1.8-1.8,1.8s-1.8-0.8-1.8-1.8
v-9.8c0-0.6-0.4-1-1-1h-3.3c-1,0-1.8-0.8-1.8-1.8c0-1,0.8-1.8,1.8-1.8h3.3c0.6,0,1-0.4,1-1v-5.3c0-0.6-0.4-1-1-1h-3.3
c-1,0-1.8-0.8-1.8-1.8c0-1,0.8-1.8,1.8-1.8h3.3c0.6,0,1-0.4,1-1V24.6c0-1,0.8-1.8,1.8-1.8h11.2c9.4,0,17,6,17,13.4
C59.6,43.7,51.9,49.8,42.5,49.8z"/>
<path fill="#009CF2" d="M42.5,26.4h-8.5c-0.6,0-1,0.4-1,1v17.9c0,0.6,0.4,1,1,1h8.5c7.5,0,13.5-4.5,13.5-10
C56,30.8,50,26.4,42.5,26.4z M42.5,44.2h-7.5V28.4h7.5c6.4,0,11.5,3.6,11.5,7.9C54,40.7,48.9,44.2,42.5,44.2z"/>
</svg>
