<svg xmlns="http://www.w3.org/2000/svg" width="96px" height="96px" viewBox="0 0 96 96">
<path fill="#009CF2" d="M89.9,70.3c0-0.1-0.1-0.1-0.1-0.1l-24.4-28V11.2h3.7c3.3,0,6-2.5,6-5.6c0-3.1-2.7-5.6-6-5.6H38.3
c-3.3,0-6,2.5-6,5.6c0,3.1,2.7,5.6,6,5.6H42v30.9L28.6,57.5c-0.4,0.4-0.3,1,0.1,1.4c0.4,0.4,1,0.3,1.4-0.1l13.6-15.7
c0.2-0.2,0.2-0.4,0.2-0.7V11.3h19.6v31.3c0,0.2,0.1,0.5,0.2,0.7l24.5,28.2c0,0.1,0.1,0.1,0.1,0.2c1.7,1.9,2.7,4.5,2.7,7.1
c0,5.9-4.7,10.7-10.6,10.7h-51c-0.5,0-1,0.4-1,1s0.4,1,1,1h51c6.9,0,12.5-5.7,12.5-12.7C93,75.5,91.9,72.6,89.9,70.3z M34.2,5.6
c0-2,1.8-3.6,4.1-3.6h30.9c2.3,0,4.1,1.6,4.1,3.6c0,2-1.8,3.6-4.1,3.6H38.3C36,9.2,34.2,7.6,34.2,5.6z"/>
<path fill="#009CF2" d="M40.6,53l-12,13c-0.4,0.4-0.4,1,0,1.4c0.4,0.4,1,0.4,1.4,0l11.6-12.5c6.7,2.5,13.9,3.7,21.4,3.7
c1.9,0,3.8-0.1,5.9-0.3L80.8,71c0,0,0.1,0.1,0.1,0.1c1.3,1.4,2,3.2,2,5.1c0,4.2-3.6,7.7-8.1,7.7H32.6c-1,0-2-0.2-2.9-0.5
c-0.5-0.2-1.1,0.1-1.3,0.6c-0.2,0.5,0.1,1.1,0.6,1.3c1.1,0.4,2.3,0.6,3.5,0.6h42.2c5.6,0,10.1-4.3,10.1-9.7c0-2.3-0.9-4.6-2.5-6.3
c0,0-0.1-0.1-0.1-0.1L70.1,56.5c-0.2-0.2-0.5-0.4-0.8-0.3c-2.2,0.2-4.2,0.3-6.2,0.3c-7.5,0-14.7-1.3-21.4-3.8
C41.3,52.6,40.9,52.7,40.6,53z"/>
<path fill="#009CF2" d="M48.3,71.5c0-3.1-2.5-5.6-5.5-5.6c-3,0-5.5,2.5-5.5,5.6c0,3.1,2.5,5.6,5.5,5.6
C45.8,77.1,48.3,74.6,48.3,71.5z M39.2,71.5c0-2,1.6-3.6,3.5-3.6c2,0,3.5,1.6,3.5,3.6c0,2-1.6,3.6-3.5,3.6
C40.8,75.1,39.2,73.5,39.2,71.5z"/>
<path fill="#009CF2" d="M62.5,66.1c0-2.1-1.7-3.8-3.8-3.8c-2.1,0-3.7,1.7-3.7,3.8c0,2.1,1.7,3.8,3.7,3.8
C60.8,69.9,62.5,68.2,62.5,66.1z M57,66.1c0-1,0.8-1.8,1.8-1.8c1,0,1.8,0.8,1.8,1.8c0,1-0.8,1.8-1.8,1.8C57.8,67.9,57,67.1,57,66.1z
"/>
<path fill="#009CF2" d="M57,41.9c0-2.1-1.7-3.8-3.8-3.8c-2.1,0-3.7,1.7-3.7,3.8c0,2.1,1.7,3.8,3.7,3.8C55.3,45.7,57,44,57,41.9z
 M51.5,41.9c0-1,0.8-1.8,1.8-1.8c1,0,1.8,0.8,1.8,1.8c0,1-0.8,1.8-1.8,1.8C52.2,43.7,51.5,42.9,51.5,41.9z"/>
<path fill="#009CF2" d="M28.8,39.7c2.8,0,5.1-2.3,5.1-5.2c0-2.8-2.3-5.2-5.1-5.2H8.1c-2.8,0-5.1,2.3-5.1,5.2c0,2.8,2.3,5.2,5.1,5.2
h2.2l0,48c0,4.6,3.7,8.3,8.2,8.3c4.5,0,8.2-3.7,8.2-8.3v-48H28.8z M5,34.5c0-1.7,1.4-3.2,3.1-3.2h20.8c1.7,0,3.1,1.4,3.1,3.2
c0,1.8-1.4,3.2-3.1,3.2h-3.4c-0.2-0.1-0.5-0.2-0.8-0.2H12.2c-0.3,0-0.5,0.1-0.8,0.2H8.1C6.4,37.7,5,36.3,5,34.5z M24.7,87.7
c0,3.5-2.8,6.3-6.2,6.3c-3.5,0-6.2-2.8-6.2-6.3l0-15.9h3.9c0.6,0,1.2-0.5,1.2-1.2c0-0.6-0.5-1.2-1.2-1.2h-3.9l0-5.5h3.9
c0.6,0,1.2-0.5,1.2-1.2c0-0.6-0.5-1.2-1.2-1.2h-3.9l0-5.5h3.9c0.6,0,1.2-0.5,1.2-1.2c0-0.6-0.5-1.2-1.2-1.2h-3.9l0-13.9h12.5V87.7z"
/>
</svg>
