<svg xmlns="http://www.w3.org/2000/svg" width="96px" height="96px" viewBox="0 0 96 96">
<path fill="#009CF2" d="M90.5,81.8L76.6,53.9l3.2-0.9c0.8-0.2,1.6-0.7,2.2-1.3c0.5-0.5,0.8-1,1.1-1.7c0.6-1.4,0.5-3-0.2-4.4
l-5.6-10.2l5.6-10.2c0.7-1.4,0.8-3,0.2-4.4c-0.6-1.4-1.8-2.5-3.3-2.9l-11.1-3.3L65.4,3.6C65,2.2,63.9,1,62.5,0.4
C61.8,0.1,61.2,0,60.5,0c-0.8,0-1.7,0.2-2.4,0.6L47.9,6.2L37.7,0.6C37,0.2,36.1,0,35.3,0c-0.7,0-1.3,0.1-1.9,0.4
c-0.6,0.3-1.2,0.6-1.6,1.1c-0.6,0.6-1,1.3-1.3,2.2l-3.3,11.1L16.1,18c-0.8,0.2-1.6,0.7-2.2,1.3c-0.5,0.5-0.8,1-1.1,1.6
c-0.6,1.4-0.5,3,0.2,4.4l5.6,10.2L13,45.7c-0.7,1.3-0.8,3-0.2,4.4c0.6,1.4,1.8,2.5,3.3,2.9l3.3,1L5.5,81.8c-0.2,0.3-0.1,0.8,0.1,1.1
c0.2,0.3,0.6,0.4,1,0.3l17.5-4.4l7.1,16.6c0.2,0.4,0.5,0.6,0.9,0.6c0,0,0,0,0,0c0.4,0,0.7-0.2,0.9-0.6L48,65.6l14.9,29.9
c0.2,0.3,0.5,0.6,0.9,0.6c0,0,0,0,0,0c0.4,0,0.7-0.2,0.9-0.6l7.1-16.6l17.5,4.4c0.4,0.1,0.8,0,1-0.3C90.6,82.5,90.7,82.1,90.5,81.8z
 M14.6,49.3c-0.4-0.9-0.3-1.8,0.1-2.7l5.6-10.2c0.3-0.6,0.3-1.3,0-1.9l-5.6-10.2c-0.4-0.8-0.5-1.8-0.1-2.7c0.2-0.4,0.4-0.7,0.7-1
c0.4-0.4,0.8-0.6,1.3-0.8l11.1-3.3c0.7-0.2,1.2-0.7,1.4-1.4l3.3-11.1c0.1-0.5,0.4-0.9,0.8-1.3c0.3-0.3,0.6-0.5,1-0.7
C34.5,2.1,34.9,2,35.3,2h0c0.5,0,1,0.1,1.5,0.4L47,7.9c0.3,0.2,0.6,0.2,1,0.2c0.3,0,0.7-0.1,1-0.2L59,2.4C59.5,2.1,60,2,60.5,2
c0.4,0,0.8,0.1,1.2,0.2c0.9,0.4,1.5,1.1,1.8,2l3.3,11.1c0.2,0.7,0.7,1.2,1.4,1.4L79.2,20c0.9,0.3,1.6,0.9,2,1.8
c0.4,0.9,0.3,1.8-0.1,2.7l-5.6,10.2c-0.3,0.6-0.3,1.3,0,1.9L81,46.6c0.5,0.8,0.5,1.8,0.1,2.7c-0.1,0.4-0.4,0.7-0.7,1
c-0.4,0.4-0.8,0.6-1.3,0.8l-11.1,3.3c-0.7,0.2-1.2,0.7-1.4,1.4l-3.3,11.1c-0.1,0.5-0.4,0.9-0.8,1.3c-0.3,0.3-0.6,0.5-1,0.7
c-0.4,0.2-0.8,0.2-1.2,0.2c-0.5,0-1-0.1-1.5-0.4l-10.2-5.6c-0.3-0.2-0.6-0.2-1-0.2s-0.7,0.1-1,0.2l-10.2,5.6c-0.4,0.2-1,0.4-1.5,0.4
c-0.4,0-0.8-0.1-1.2-0.2c-0.9-0.4-1.5-1.1-1.8-2l-3.3-11.1c-0.2-0.7-0.7-1.2-1.4-1.4l-11.1-3.3C15.7,50.8,15,50.2,14.6,49.3z
 M32.2,92.6l-6.6-15.4c-0.2-0.5-0.7-0.7-1.2-0.6L8.3,80.7l13.1-26.2l5.8,1.7l3.3,11.1c0.4,1.5,1.5,2.7,2.9,3.3
c0.6,0.3,1.3,0.4,1.9,0.4c0.8,0,1.7-0.2,2.4-0.6l7.7-4.2L32.2,92.6z M71.5,76.6c-0.5-0.1-1,0.1-1.2,0.6l-6.6,15.4L50.6,66.3l7.5,4.1
c0.8,0.4,1.6,0.6,2.4,0.6c0.7,0,1.3-0.1,1.9-0.4c0.6-0.3,1.2-0.6,1.6-1.1c0.6-0.6,1-1.3,1.3-2.2l3.3-11.1l6-1.8l13.1,26.2L71.5,76.6
z"/>
<path fill="#009CF2" d="M48,55.5c11,0,20-9,20-20s-9-20-20-20c-11,0-20,9-20,20S37,55.5,48,55.5z M48,17.5c9.9,0,18,8.1,18,18
s-8.1,18-18,18c-9.9,0-18-8.1-18-18S38.1,17.5,48,17.5z"/>
</svg>
