<svg xmlns="http://www.w3.org/2000/svg" width="96px" height="96px" viewBox="0 0 96 96">
<path fill="#009CF2" d="M56.8,33.1l5.3-9c0.8-1.4,0.1-3.3-1.7-4.3l-0.1-0.1L67.7,8c0.6-1,0.7-2.2,0.3-3.4c-0.4-1.1-1.2-2.1-2.3-2.8
l-1.4-0.9c-1.1-0.7-2.4-1-3.5-0.9c-1.3,0.1-2.3,0.7-2.9,1.7l-7.6,12l0,0l-0.8-0.5c-0.7-0.4-1.4-0.6-2.1-0.6c-1,0-1.9,0.4-2.4,1.2
L29.1,40.3c-0.7,1.2-0.2,2.9,1.3,4l0,0l-2.7,4.6c-0.7,1.3-0.1,3,1.3,3.8l6.4,3.8c0.6,0.3,1.2,0.5,1.7,0.5c0.9,0,1.8-0.4,2.3-1.2
l2.7-4.6l0,0c0.6,0.3,1.3,0.5,2,0.5c1,0,1.9-0.4,2.4-1.2l1.8-3.1c0.7-0.1,1.5-0.1,2.2-0.1C60.2,47.2,68,55,68,64.6
c0,8.1-5.6,14.9-13,16.8v-0.3c0-1.8-1.4-3.2-3.2-3.2H16.7c-1.8,0-3.2,1.5-3.2,3.2v11.7c0,1.8,1.5,3.2,3.2,3.2h35.1
c0.1,0,0.3,0,0.4,0C69,95.2,82.5,81.3,82.5,64.2C82.5,48.8,71.5,35.9,56.8,33.1z M59.5,2.8c0.3-0.4,0.8-0.7,1.4-0.8
c0.7-0.1,1.6,0.2,2.3,0.6l1.4,0.9c0.7,0.5,1.3,1.1,1.5,1.8c0.3,0.7,0.2,1.2,0,1.7l-7.4,11.7l0,0l-6.8-4L59.5,2.8z M37.7,54.8
c-0.2,0.3-0.7,0.3-1.3,0L30,51c-0.5-0.3-0.8-0.8-0.6-1.1l2.7-4.6l0,0l8.3,4.9l0,0L37.7,54.8z M52.1,94c-0.1,0-0.1,0-0.2,0
c-0.1,0-0.1,0-0.2,0H16.6c-0.7,0-1.2-0.6-1.2-1.2V81.1c0-0.7,0.6-1.2,1.2-1.2h35.1c0.7,0,1.2,0.6,1.2,1.2v0.3c0,0.6,0.3,1.2,0.8,1.6
c0.4,0.3,0.8,0.4,1.2,0.4c0.2,0,0.3,0,0.5-0.1C64,81.1,70,73.4,70,64.6c0-10.7-8.7-19.4-19.4-19.4c-0.8,0-1.6,0.1-2.5,0.2
c-0.6,0.1-1.2,0.4-1.5,1l-1.8,3.1c-0.1,0.1-0.4,0.2-0.7,0.2c-0.4,0-0.8-0.1-1.1-0.3l-11.2-6.6c-0.9-0.5-1.1-1.3-1-1.5l15.6-26.5
c0.1-0.1,0.4-0.2,0.7-0.2c0.4,0,0.8,0.1,1.1,0.3l11.2,6.6c0.4,0.3,0.8,0.6,0.9,1c0,0.1,0.1,0.4,0,0.5L55,32
c-0.3,0.6-0.4,1.2-0.1,1.8c0.3,0.6,0.8,1,1.4,1.1c13.9,2.7,24,15,24,29.2C80.5,80.2,68,93.3,52.1,94z"/>
<path fill="#009CF2" d="M48.9,33.6c-2.4,0-4.3,1.9-4.3,4.3s1.9,4.3,4.3,4.3c2.4,0,4.3-1.9,4.3-4.3C53.2,35.5,51.3,33.6,48.9,33.6z
 M48.9,40.2c-1.3,0-2.3-1-2.3-2.3c0-1.3,1-2.3,2.3-2.3c1.3,0,2.3,1,2.3,2.3C51.2,39.2,50.2,40.2,48.9,40.2z"/>
<path fill="#009CF2" d="M20.4,76.3h24.8c1.6,0,2.9-1.3,2.9-2.9v-2.7c0-1.6-1.3-2.9-2.9-2.9H20.4c-1.6,0-2.9,1.3-2.9,2.9v2.7
C17.5,75,18.8,76.3,20.4,76.3z M19.5,70.7c0-0.5,0.4-0.9,0.9-0.9h24.8c0.5,0,0.9,0.4,0.9,0.9v2.7c0,0.5-0.4,0.9-0.9,0.9H20.4
c-0.5,0-0.9-0.4-0.9-0.9V70.7z"/>
</svg>
