<svg xmlns="http://www.w3.org/2000/svg" width="16px" height="16px" viewBox="0 0 16 16">
<path fill="#00A9E0" d="M7.6,10.4C7.6,10.4,7.6,10.4,7.6,10.4c0.1,0.1,0.2,0.1,0.3,0.1c0,0,0,0,0,0c0,0,0,0,0,0c0,0,0,0,0.1,0
c0,0,0,0,0.1,0c0.1,0,0.2,0,0.3-0.1c0,0,0,0,0,0l2.9-2.9c0.1-0.1,0.1-0.2,0.1-0.3c0-0.1,0-0.2-0.1-0.3c-0.2-0.2-0.5-0.2-0.7,0
L8.5,8.8V0.5C8.5,0.2,8.3,0,8,0C7.7,0,7.5,0.2,7.5,0.5v8.3L5.4,6.7c-0.2-0.2-0.5-0.2-0.7,0C4.6,6.8,4.5,7,4.5,7.1
c0,0.1,0,0.2,0.1,0.3L7.6,10.4z"/>
<path fill="#00A9E0" d="M15.5,11.1c-0.3,0-0.5,0.2-0.5,0.5V15H1v-3.5c0-0.3-0.2-0.5-0.5-0.5S0,11.3,0,11.5v4C0,15.8,0.2,16,0.5,16
h15c0.3,0,0.5-0.2,0.5-0.5v-4C16,11.3,15.8,11.1,15.5,11.1z"/>
</svg>
