<svg xmlns="http://www.w3.org/2000/svg" width="24px" height="27px" viewBox="0 0 24 27">
<path fill="#777777" d="M23.6,5.4l-5.5-5.2C17.8,0.1,17.7,0,17.4,0H0.9C0.4,0,0,0.4,0,0.9v25.4C0,26.6,0.4,27,0.9,27h22.2
c0.5,0,0.9-0.4,0.9-0.9V6C23.9,5.8,23.7,5.6,23.6,5.4z M21.4,5.6h-3.5V2.2L21.4,5.6z M1.7,25.4V1.6h14.4v4.8c0,0.5,0.4,0.7,0.8,0.7
H22v18.2H1.7V25.4z"/>
<path fill="#777777" d="M16.7,9.1H7.1c-0.4,0-0.8,0.2-0.8,0.7c0,0.5,0.4,0.7,0.8,0.7h9.6c0.5,0,0.8-0.4,0.8-0.7S17.2,9.1,16.7,9.1z"
/>
<path fill="#777777" d="M16.7,11.9H7.1c-0.5,0-0.8,0.4-0.8,0.7s0.4,0.9,0.8,0.9h9.6c0.5,0,0.8-0.4,0.8-0.7S17.2,11.9,16.7,11.9z"/>
<path fill="#777777" d="M16.7,14.7H7.1c-0.5,0-0.8,0.4-0.8,0.7c0,0.4,0.4,0.7,0.8,0.7h9.6c0.5,0,0.8-0.4,0.8-0.7
C17.4,15.1,17.2,14.7,16.7,14.7z"/>
<path fill="#777777" d="M16.7,17.6H7.1c-0.5,0-0.8,0.4-0.8,0.9c0,0.5,0.4,0.9,0.8,0.9h9.6c0.5,0,0.8-0.4,0.8-0.9
C17.4,17.9,17.2,17.6,16.7,17.6z"/>
</svg>
